<?xml version="1.0" encoding="utf-8"?>
<!-- Generator: Adobe Illustrator 27.2.0, SVG Export Plug-In . SVG Version: 6.00 Build 0)  -->
<svg version="1.1" id="Layer_2_00000078741573438924892910000011045425375500177297_"
	 xmlns="http://www.w3.org/2000/svg" xmlns:xlink="http://www.w3.org/1999/xlink" x="0px" y="0px" viewBox="0 0 125.7 37.9"
	 style="enable-background:new 0 0 125.7 37.9;" xml:space="preserve">
<style type="text/css">
	.st0{fill:#FFFFFF;}
</style>
<image style="overflow:visible;" width="673" height="673" xlink:href="E:\Images\NOS LOGO1 .jpg"  transform="matrix(0.24 0 0 0.24 129.2677 -42.0079)">
</image>
<path class="st0" d="M18.2,0.3C25.9,0.4,31,3.1,34.8,8.2c1.6,2.2,2.7,4.7,3.1,7.4c0.3,2.1,0.5,4.2-0.1,6.2c-0.7,2.8-2.3,5-5.3,5.7
	c-1.8,0.5-3.6,0.1-4.7-1.7c-0.6-1-0.8-2.1-0.6-3.3c0.3-1.6,0.7-3.2,0.9-4.8c0.3-2.3-0.2-4.4-1.9-6c-1.1-1-2.5-1.6-4-1.7
	c-2.2-0.2-4.2,0.2-6,1.5c-0.4,0.3-0.7,0.2-1-0.1c-0.3-0.4-0.7-0.7-1.1-0.9c-0.3-0.2-0.6-0.2-0.9,0c-0.9,0.6-1.7,1.4-2.1,2.5
	C11,13.5,11,14,11.4,14.3c1.5,1,1.4,2.4,1.2,3.8c-0.5,2.8-1.1,5.5-1.7,8.3c-0.2,0.9-0.2,1,0.8,1c1.1,0,2.1,0,3.2,0
	c0.4,0,0.6-0.2,0.7-0.6c0.4-2.2,0.9-4.3,1.3-6.4c0.3-1.3,0.4-2.7,1.2-3.9c0.7-1,1.5-1.8,2.8-1.9c1.9-0.1,3,1.4,2.6,3.5
	c-0.4,1.7-0.8,3.3-1,5c-0.4,4.1,1.8,8,6.1,8.9c1.3,0.3,2.6,0.1,3.8-0.2c0.2,0,0.4-0.2,0.5,0c0.1,0.2-0.1,0.3-0.2,0.4
	c-2,1.9-4.3,3.4-6.9,4.3c-3.1,1.1-6.3,1.3-9.6,0.7c-1.8-0.3-3.4-0.9-5.1-1.7c-2-1-3.7-2.4-5.3-4c-1.9-2-3.2-4.4-4.1-7
	c-0.9-2.8-1.1-5.8-0.5-8.7C2.4,9.7,5.8,5.1,11.4,2.3C13.5,1.2,16.8,0.3,18.2,0.3z"/>
<path class="st0" d="M54.3,16.2c-0.3,0.5-0.2,0.8-0.2,1.2c0,3.6,0,7.1,0,10.7c0,1-0.3,1.3-1.3,1.3c-3,0-3,0-3-3c0-5.5,0-11,0-16.4
	c0-1.3,0-1.2,1.3-1.4c2.5-0.4,4,0.5,5.2,2.8c1.8,3.4,4,6.7,6.1,10.1c0.2-0.4,0.2-0.8,0.2-1.1c0-3.5,0-7,0-10.5c0-1,0.3-1.3,1.3-1.3
	c3,0,3,0,3,3c0,5.5,0,11,0,16.5c0,1-0.3,1.2-1.3,1.3c-2.4,0.3-3.7-0.6-4.9-2.7C58.7,23.1,56.4,19.7,54.3,16.2z"/>
<path class="st0" d="M88.5,19.2c0.1,1.8-0.2,3.5-0.8,5.2c-1.2,3.1-3.4,5.1-6.7,5.6c-4,0.6-7.8,0.1-10.2-3.6
	c-2.8-4.4-3.1-9.2-0.7-13.8c1.8-3.5,5.9-5.2,10.1-4.6c3.9,0.6,7,3.3,8,7.3C88.4,16.5,88.6,17.8,88.5,19.2z M84.1,19.2
	c0-2-0.3-3.3-0.9-4.6c-1.4-3.1-6.1-3.8-8.3-1.2c-2.7,3-2.4,9.1,0.6,11.8c2.2,2,5.5,1.7,7.3-0.8C83.8,22.8,84.1,21,84.1,19.2z"/>
<path class="st0" d="M104.3,14.8c-0.4,0-0.9,0-1.3,0c-0.5,0-0.7-0.2-0.9-0.6c-0.7-1.8-2.2-2.7-4.1-2.5c-0.7,0.1-1.4,0.1-2,0.5
	c-0.8,0.4-1.3,1-1.4,1.9c0,0.9,0.6,1.4,1.3,1.8c1,0.5,2.1,0.7,3.2,1c1.4,0.4,2.8,0.7,4.1,1.1c2,0.6,3.4,1.8,3.8,3.9
	c0.4,2.3,0,4.4-1.8,6c-2.3,2-5,2.3-7.9,2c-1.3-0.1-2.5-0.4-3.6-1c-2.2-1.1-3.3-2.9-3.6-5.2c-0.1-0.6,0.1-0.9,0.7-0.9
	c0.9,0,1.8,0,2.8,0c0.5,0,0.8,0.2,0.9,0.7c0.3,1.3,1.3,2.1,2.5,2.5c1.4,0.5,2.9,0.4,4.3-0.2c0.9-0.4,1.6-1,1.6-2.1
	c0-1-0.7-1.5-1.5-1.9c-1.1-0.5-2.2-0.7-3.3-1c-1.1-0.3-2.2-0.6-3.4-0.9c-5.1-1.3-5.1-7.2-2.5-9.7c3.3-3.3,10.5-2.8,13.3,1
	c0.6,0.8,0.9,1.7,1.1,2.6c0.2,0.8,0,1.2-0.9,1.1C105.2,14.8,104.7,14.8,104.3,14.8z"/>
</svg>
